<svg width="50" height="50" viewBox="0 0 50 50" fill="none" xmlns="http://www.w3.org/2000/svg">
<path d="M43.7073 22.2917C43.249 14.1667 37.2281 7.39583 29.1865 6.02083C29.0615 4.41667 27.7281 3.125 26.0823 3.125H23.999C22.3531 3.125 21.0406 4.39583 20.8948 6C12.8115 7.33333 6.74902 14.125 6.29069 22.2917C4.81152 22.5417 3.68652 23.8125 3.68652 25.3542V27.4375C3.68652 29.1667 5.08236 30.5625 6.81152 30.5625H8.89486C10.624 30.5625 12.0199 29.1667 12.0199 27.4375V25.3542C12.0199 23.8125 10.8949 22.5417 9.41569 22.2917C9.85319 15.7917 14.624 10.3958 20.999 9.14583C21.3531 10.4792 22.5615 11.4583 23.999 11.4583H26.0823C27.5198 11.4583 28.7073 10.4792 29.0823 9.16667C35.4156 10.4375 40.1448 15.8333 40.5823 22.2917C39.1031 22.5417 37.9781 23.8125 37.9781 25.3542V27.4375C37.9781 29.1667 39.374 30.5625 41.1031 30.5625H43.1865C44.9156 30.5625 46.3115 29.1667 46.3115 27.4375V25.3542C46.3115 23.8125 45.1865 22.5208 43.7073 22.2917Z" fill="white"/>
<path d="M32.8549 34.4777L29.4382 37.4985H20.5841L17.1674 34.4777C15.1883 32.8527 15.1883 31.6027 16.6883 29.686L22.709 22.061C23.1257 21.5402 23.6049 21.186 24.1465 20.9985C24.709 20.811 25.3132 20.811 25.8965 20.9985C26.4174 21.186 26.8965 21.5402 27.334 22.061L33.334 29.6652C34.8549 31.5818 34.7715 32.7693 32.8549 34.4777Z" fill="#A9A9A9"/>
<path d="M27.7505 45.8327H22.3547C20.4379 45.8327 19.0004 44.2702 19.3754 42.6035L20.0213 39.7077C20.1463 39.1243 20.6671 38.7285 21.2505 38.7285H28.8547C29.438 38.7285 29.938 39.1243 30.0838 39.7077L30.7297 42.6035C31.1255 44.3743 29.7922 45.8327 27.7505 45.8327Z" fill="white"/>
</svg>
